<svg xmlns="http://www.w3.org/2000/svg" fill="none" viewBox="0 0 24 24" stroke-width="1.5" stroke="currentColor">
  <path stroke-linecap="round" stroke-linejoin="round" d="M20.25 14.15v4.25c0 1.094-.787 2.036-1.872 2.18-2.087.277-4.216.42-6.378.42s-4.291-.143-6.378-.42c-1.085-.144-1.872-1.086-1.872-2.18v-4.25m16.5 0a2.18 2.18 0 00.75-1.661V8.706c0-1.081-.768-2.015-1.837-2.175a48.114 48.114 0 00-3.413-.387m4.5 8.006c-.194.165-.42.295-.681.387-2.07.652-5.998.938-9.938.938-3.94 0-7.868-.286-9.938-.938a1.59 1.59 0 01-.681-.387m12 0c.063-.121.124-.243.184-.366.027-.055.056-.109.083-.166.012-.025.023-.05.035-.075.03-.066.06-.134.09-.2.012-.025.023-.05.035-.075.033-.075.065-.15.098-.225a.28.28 0 01.01-.022c.036-.08.07-.162.106-.243.013-.03.027-.061.04-.092.035-.081.069-.163.104-.246.013-.03.026-.062.039-.093.033-.082.066-.166.099-.25.012-.032.025-.064.037-.097.031-.083.061-.167.092-.252.012-.034.023-.068.035-.102.028-.086.056-.172.083-.26.011-.035.022-.07.032-.105.025-.088.05-.177.075-.267.01-.037.02-.074.03-.112.022-.09.043-.182.065-.273.009-.039.017-.078.026-.118.019-.093.037-.187.056-.282.008-.04.016-.08.023-.122.016-.095.032-.191.048-.288.007-.042.014-.084.02-.127.013-.098.026-.196.039-.296.006-.043.011-.087.017-.131.01-.1.021-.201.03-.303.005-.045.01-.09.014-.135.008-.103.015-.207.022-.311.004-.047.007-.094.011-.141.005-.105.01-.212.014-.319.002-.048.005-.097.007-.146.002-.108.004-.217.006-.326 0-.05 0-.1 0-.15 0-.11 0-.222 0-.333 0-.05 0-.1 0-.151 0-.112-.001-.225-.003-.338 0-.05-.002-.101-.004-.152-.004-.114-.009-.228-.015-.342-.002-.052-.005-.103-.008-.155-.007-.116-.015-.231-.024-.347-.003-.053-.007-.105-.011-.158-.01-.118-.022-.236-.033-.353-.004-.054-.009-.108-.014-.162-.014-.12-.03-.24-.046-.359-.006-.055-.011-.11-.018-.166-.018-.122-.038-.244-.06-.365-.007-.056-.014-.112-.022-.168-.022-.124-.047-.247-.074-.37-.009-.057-.018-.114-.028-.171-.027-.126-.056-.251-.088-.376-.01-.057-.021-.115-.032-.172-.032-.127-.067-.253-.104-.379-.012-.058-.024-.116-.037-.174-.037-.128-.077-.255-.12-.381-.013-.058-.028-.116-.042-.174-.042-.128-.088-.255-.136-.381-.015-.058-.031-.116-.047-.174-.048-.127-.1-.253-.153-.379-.016-.057-.033-.114-.051-.17-.054-.126-.112-.25-.172-.373-.018-.057-.037-.113-.057-.169-.06-.124-.124-.247-.191-.368-.02-.055-.04-.11-.062-.165-.067-.122-.137-.242-.211-.36-.022-.054-.045-.107-.069-.16-.074-.12-.152-.238-.233-.353-.024-.053-.049-.105-.075-.157-.081-.117-.167-.231-.256-.344-.027-.051-.054-.102-.082-.152-.089-.114-.183-.225-.281-.334-.029-.05-.059-.098-.09-.147-.098-.11-.2-.217-.307-.321-.031-.047-.063-.094-.096-.14-.107-.107-.218-.21-.334-.31-.034-.046-.068-.09-.104-.134-.116-.103-.237-.202-.363-.298-.037-.044-.074-.086-.112-.128-.126-.098-.257-.192-.394-.282-.04-.042-.08-.082-.121-.121-.137-.093-.278-.181-.426-.265-.043-.04-.086-.078-.13-.115-.148-.088-.301-.17-.459-.247-.046-.037-.092-.073-.139-.108-.16-.082-.325-.157-.495-.227-.049-.035-.098-.068-.148-.1-.172-.075-.349-.144-.531-.205-.052-.032-.104-.063-.157-.092-.184-.068-.374-.129-.569-.183-.055-.03-.111-.058-.167-.084-.197-.06-.4-.113-.608-.159-.058-.027-.117-.051-.177-.075-.21-.052-.426-.096-.648-.133-.061-.024-.123-.046-.186-.067-.223-.043-.453-.078-.689-.106-.064-.02-.129-.039-.195-.057-.237-.034-.48-.06-.731-.078-.067-.017-.135-.032-.204-.047-.251-.025-.508-.041-.773-.049-.07-.014-.141-.025-.213-.036-.265-.015-.536-.021-.815-.021-.073-.01-.147-.018-.222-.024-.28-.005-.565.001-.857.014-.076.007-.152.017-.23.025-.294.02-.594.049-.9.086-.078.014-.158.027-.238.043-.309.043-.623.095-.942.155-.081.02-.163.04-.246.062-.323.07-.652.149-.985.236-.084.027-.168.056-.253.085-.337.103-.679.214-1.026.331-.087.034-.174.068-.261.104-.35.143-.705.293-1.065.45-.09.04-.179.083-.269.125-.362.19-.728.388-1.098.593-.092.051-.184.103-.276.155-.373.245-.749.498-1.127.759-.094.065-.188.13-.281.196-.382.308-.765.624-1.148.948-.096.082-.191.164-.286.248-.388.38-.775.768-1.159 1.163-.097.102-.193.204-.287.308-.392.46-.779.928-1.16 1.403-.097.124-.193.248-.287.373-.393.55-.777 1.107-1.15 1.67-.096.149-.191.298-.284.448-.39.65-.765 1.306-1.127 1.968-.094.175-.186.351-.276.527-.384.761-.749 1.528-1.097 2.299-.09.204-.178.409-.264.614-.374.883-.725 1.774-1.05 2.67-.085.235-.167.471-.248.707-.36.985-.694 2.043-1.002 3.083-.079.269-.155.539-.228.809-.34 1.16-.653 2.336-.938 3.528-.073.307-.142.614-.208.922-.317 1.36-.6 2.736-.849 4.128-.064.348-.125.697-.183 1.046-.288 1.661-.532 3.337-.731 5.027-.053.407-.103.815-.15 1.223-.25 1.977-.447 3.969-.589 5.974-.041.468-.078.937-.111 1.407-.202 2.613-.332 5.241-.391 7.883-.023.633-.039 1.267-.05 1.901-.137 5.627-.08 11.285.168 16.969.01.272.022.544.036.816.082 3.238.232 6.474.45 9.702.03.493.064.985.101 1.477.29 4.237.688 8.455 1.192 12.651.056.452.116.903.179 1.353.42 3.197.917 6.376 1.488 9.534.085.452.174.903.267 1.353.567 3.023 1.206 6.024 1.916 8.998.118.497.241.993.368 1.487.733 2.94 1.54 5.852 2.417 8.734.156.51.317 1.018.482 1.524.919 2.81 1.921 5.586 3.003 8.324.198.498.402.994.61 1.486 1.127 2.664 2.343 5.292 3.649 7.879.243.483.493.963.748 1.44 1.358 2.502 2.816 4.966 4.373 7.39.294.457.595.91.902 1.359 1.614 2.321 3.337 4.602 5.168 6.842.35.429.708.854 1.072 1.276 1.895 2.119 3.909 4.195 6.039 6.228.411.393.83.781 1.257 1.164 2.203 1.896 4.532 3.743 6.985 5.54.478.35.964.695 1.458 1.035 2.538 1.65 5.21 3.243 8.013 4.773.551.301 1.111.597 1.679.887 2.903 1.381 5.945 2.693 9.127 3.923.63.239 1.269.473 1.917.701 3.303 1.087 6.746 2.088 10.334 2.985.717.177 1.442.348 2.176.512 3.738.766 7.618 1.421 11.642 1.956.812.107 1.633.206 2.463.297 4.21.378 8.563.633 13.064.757.915.013 1.838.013 2.77.001 4.723-.198 9.589-.522 14.609-.962 1.028-.095 2.066-.201 3.113-.318 5.281-.663 10.706-1.492 16.29-2.484 1.152-.218 2.316-.448 3.49-.691 5.889-1.282 11.921-2.775 18.12-4.475 1.289-.374 2.592-.762 3.907-1.164 6.551-2.073 13.245-4.402 20.12-6.993 1.439-.569 2.894-1.153 4.364-1.751 7.272-3.044 14.689-6.398 22.308-10.081 1.604-.805 3.225-1.625 4.862-2.46 8.058-4.208 16.262-8.799 24.704-13.784 1.785-1.09 3.59-2.196 5.412-3.318 8.917-5.591 17.98-11.657 27.333-18.188 1.984-1.429 3.989-2.874 6.014-4.336 9.859-7.234 19.864-15.067 30.222-23.418 2.203-1.834 4.428-3.685 6.677-5.553 10.893-9.197 21.936-19.167 33.407-29.673 2.443-2.313 4.912-4.643 7.406-6.992 12.032-11.56 24.218-24.156 36.932-37.24 2.709-2.887 5.447-5.793 8.214-8.718 13.287-14.437 26.744-30.342 40.854-46.543 3.002-3.58 6.037-7.18 9.106-10.8 14.673-18.006 29.542-38.197 45.244-58.199 3.328-4.43 6.691-8.883 10.091-13.36 16.208-22.569 32.656-48.47 50.197-73.197 3.69-5.49 7.42-11.006 11.189-16.551 17.913-28.587 36.136-62.33 55.827-93.072 4.094-6.841 8.232-13.714 12.413-20.619 19.815-36.877 40.038-81.854 62.275-120.354 4.545-8.627 9.14-17.302 13.782-26.026 21.938-48.977 44.439-111.454 74.072-159.222 5.053-11.109 10.161-22.28 15.321-33.513 24.318-68.497 49.444-162.77 74.872-219.873 5.626-14.821 11.312-29.722 17.057-44.707 26.999-92.83 55.197-290.165 77.039-445.828" />
  <path stroke-linecap="round" stroke-linejoin="round" d="M16.5 12a4.5 4.5 0 11-9 0 4.5 4.5 0 019 0zm0 0c0 1.657 1.007 3 2.25 3S21 13.657 21 12a9 9 0 10-2.636 6.364M16.5 12V8.25" />
</svg>